<svg width="111" height="106" viewBox="0 0 111 106" fill="none" xmlns="http://www.w3.org/2000/svg">
<path d="M53.6232 5.40499C49.3517 6.00382 45.0094 8.75299 42.7253 12.3041C40.1424 16.32 36.3821 23.999 34.7349 28.6212C34.2572 29.961 33.014 33.1931 31.971 35.8037C29.2526 42.6105 27.3548 48.2364 27.6819 48.5202C27.7749 48.6009 28.4175 48.867 29.1096 49.112L30.3684 49.5571L32.4963 48.5495C35.1798 47.2787 36.6313 46.7792 38.0772 46.6274C39.1894 46.5105 39.243 46.4767 40.1844 45.3053C48.2142 35.3127 64.1818 35.5098 71.2056 45.6879C71.746 46.4712 71.8234 46.511 73.0322 46.6234C74.4679 46.757 76.1712 47.3528 78.8314 48.6518C80.8587 49.6413 80.839 49.6413 82.9659 48.7032L83.796 48.3367L83.021 46.1219C82.0129 43.2411 81.0726 40.747 79.8466 37.7045C79.3016 36.3506 78.2844 33.6926 77.5862 31.7973C75.6424 26.5198 74.4927 23.7691 73.1818 21.2629C67.8906 11.1468 66.9604 9.89268 62.8062 7.27003C60.6045 5.88032 56.3689 5.01989 53.6232 5.40499Z" fill="#E9F160"/>
<path d="M23.3664 71.8534L23.5014 75.7352C24.5196 82.1948 30.6738 90.9267 37.2814 95.2874C53.6889 106.114 76.3107 100.156 85.0878 82.6958C86.3264 80.2325 89.3678 72.3423 89.3678 72.3423C89.3678 72.3423 83.3977 72.5556 83.2865 72.5556C82.6055 72.5556 81.7035 73.729 81.612 74.7341C81.3704 77.3911 79.2334 79.433 76.6833 79.4426C75.6146 79.4471 75.5438 79.4774 75.4154 79.9885C74.7511 82.6359 73.11 83.9822 70.1555 84.3033C69.1651 84.4107 68.9568 84.509 68.5933 85.0382C67.1616 87.1261 65.6252 87.9527 60.9235 89.1665C56.6667 90.2654 54.6914 90.2871 50.7597 89.2774C49.7465 89.0168 48.5999 88.8772 47.564 88.8873C44.7749 88.9145 42.2491 87.4855 41.5954 85.51C41.3654 84.8139 40.9847 84.5755 40.0954 84.5689C38.6313 84.5584 36.333 82.8072 35.5226 81.0843C35.0858 80.1564 34.9493 80.0334 34.014 79.7284C31.1131 78.7823 29.6884 77.2388 29.3224 74.6459C29.1859 73.6766 29.0449 73.3555 28.601 72.9996C27.8881 72.429 23.3664 71.8534 23.3664 71.8534Z" fill="white"/>
<path d="M21.1369 48.0983L19.7547 48.1553L19.7749 56.5651C19.786 61.1904 19.8083 66.0602 19.8244 67.3869L19.8533 69.7988H23.6055V66.5501C23.6055 63.7934 23.6505 63.3014 23.9018 63.3014C24.1475 63.3014 24.198 63.681 24.198 65.5385V67.775L25.1359 67.8864C26.8436 68.0885 28.0752 68.6168 29.875 69.9188C30.2997 70.2263 30.3512 70.2106 31.0974 69.5382C33.7936 67.1096 37.9837 67.9177 39.4473 71.1487L39.8355 72.0056L40.8542 71.8806C42.9286 71.6266 45.105 72.8388 46.0848 74.7951L46.5413 75.706L47.6631 75.708C49.6909 75.7115 51.5559 76.945 52.4225 78.8564C53.2652 80.7144 52.7951 84.3275 51.5807 85.3291C50.9842 85.8211 51.2359 86.0655 52.6849 86.4037C55.1899 86.988 56.2834 86.8176 57.5024 85.6532C57.541 85.6163 57.5782 85.5809 57.6141 85.5467C57.9965 85.1831 58.2238 84.9669 58.2646 84.7201C58.3244 84.3583 57.9836 83.9307 57.143 82.8762L56.9761 82.6666C54.2572 79.2506 54.0034 78.6563 54.8881 77.7742C56.011 76.6546 57.5484 77.945 61.2764 83.1349C62.5286 84.8774 64.0726 85.2046 65.2941 83.9868C66.6014 82.6832 66.3279 81.9871 62.9457 78.004C59.1621 73.5476 59.0908 73.4044 60.1449 72.3539C61.1773 71.3246 61.8037 71.7672 65.0266 75.8043C68.7076 80.4154 69.1191 80.8253 70.065 80.8253C71.4765 80.8253 72.7571 79.5974 72.7748 78.2263C72.7789 77.9143 69.0913 73.1337 68.6242 72.8464C67.9305 72.419 65.472 69.1415 65.472 68.6445C65.472 67.402 67.2091 66.7704 68.0979 67.6898C68.337 67.9373 69.8466 69.7041 71.4523 71.6155C75.6105 76.5664 76.287 76.9732 77.8193 75.4459C79.2566 74.0123 79.0519 73.2315 76.4043 70.0549C72.9422 65.9014 72.0812 65.2995 65.2192 62.2343C63.6747 61.5443 61.5347 60.5664 60.4639 60.0603C59.3926 59.5547 58.383 59.1918 58.2197 59.2543C58.057 59.3168 56.699 60.1223 55.202 61.0442C51.4887 63.3322 50.4154 63.7556 48.291 63.7707C43.9589 63.8025 40.9559 61.456 40.9559 58.039C40.9559 55.7203 41.5545 55.1078 46.8785 51.9796C51.1793 49.4527 51.1737 49.4442 45.1313 49.2113C39.4695 48.9935 37.2577 49.418 33.1788 51.5063C33.0665 51.5638 32.9593 51.6188 32.8567 51.6715C31.7878 52.2207 31.2202 52.5122 30.6292 52.5715C30.0019 52.6343 29.3482 52.4355 28.0407 52.005L27.7702 51.9158C27.6447 51.8744 27.5136 51.8311 27.3765 51.7861C25.8998 51.3006 24.4473 50.8561 24.1485 50.7976C23.6182 50.6948 23.6055 50.6595 23.6055 49.3257V47.9587L23.0626 48C22.7638 48.0227 21.8972 48.0671 21.1369 48.0983Z" fill="white"/>
<path d="M87.3931 50.6685L86.7511 50.8041C86.3982 50.8792 84.8855 51.3294 83.3896 51.8047C83.1241 51.889 82.8839 51.9669 82.665 52.0381L82.5725 52.0682L82.5715 52.0685C81.4704 52.4266 80.9254 52.6039 80.397 52.5636C79.8791 52.5242 79.3773 52.2756 78.3835 51.7835C78.3126 51.7484 78.2393 51.7121 78.1632 51.6746L78.0937 51.6403C77.9491 51.5689 77.795 51.4932 77.6302 51.413C77.339 51.2714 77.0712 51.1398 76.8225 51.0176C75.6649 50.4489 74.9189 50.0823 74.1338 49.8442C72.7109 49.4125 71.1594 49.4023 66.796 49.3737C66.279 49.3703 65.7225 49.3666 65.1222 49.362L57.1687 49.3005L56.0377 49.8741C55.4154 50.1892 54.107 50.9589 53.1293 51.5839C52.152 52.209 50.6854 53.1405 49.8709 53.6531L49.2341 54.0538C45.1043 56.6519 43.9323 57.3892 43.9541 58.0896C43.9627 58.3672 44.1588 58.6389 44.4326 59.0184L44.4335 59.0197C44.4351 59.0218 44.4366 59.024 44.4382 59.0262C44.4707 59.0712 44.5043 59.1178 44.5388 59.1661C46.2329 61.5382 48.9933 61.1496 54.6828 57.7375L58.0135 55.7399L58.83 56.0499C59.2789 56.2208 61.6014 57.2239 63.9912 58.2794C64.3535 58.4394 64.6959 58.5908 65.0197 58.7339C69.7376 60.819 70.5098 61.1603 71.3005 61.2102C71.4553 61.22 71.6108 61.2186 71.7967 61.217L71.9009 61.2161L71.9246 61.216C71.9504 61.2158 71.9768 61.2157 72.0038 61.2156C73.0256 61.2131 73.519 61.0997 74.3168 60.6838C76.5013 59.5451 77.38 61.5589 75.4811 63.3523L74.9063 63.8952L76.0645 65.1907C76.7015 65.9034 77.61 66.9438 78.0837 67.5028C80.6863 70.5736 80.7718 70.629 81.5797 69.7807C82.4032 68.9157 83.7971 68.2635 85.4098 67.9877L86.8006 67.7498V67.032C86.8006 65.1725 87.0625 63.3014 87.3233 63.3014C87.5372 63.3014 87.5903 63.9502 87.5903 66.5501V69.7988H91.3426V48.1402H87.3931V50.6685Z" fill="white"/>
<path d="M52.9321 40.9955C49.9589 41.4053 46.6813 42.9871 44.3204 45.1515L43.2648 46.1194L45.2319 46.1556C48.8143 46.2222 51.2132 46.6768 52.5206 47.5363L53.0969 47.9153L54.2875 47.316C56.5393 46.1829 56.602 46.1738 62.467 46.1642C67.0018 46.1566 67.8638 46.1113 67.6292 45.8935C63.4245 41.985 58.2531 40.2616 52.9321 40.9955Z" fill="#B67629"/>
<path fill-rule="evenodd" clip-rule="evenodd" d="M3.65964 77.4783H16.6935L16.7087 71.7188C16.7168 68.5513 16.7613 61.1526 16.8073 55.2777L16.8912 44.5956H3.65964V77.4783Z" fill="white"/>
<path fill-rule="evenodd" clip-rule="evenodd" d="M100.772 44.5492L94.3051 44.6011V77.4783H107.536V61.0488C107.536 52.0124 107.47 44.5915 107.388 44.5583C107.307 44.5245 104.33 44.5205 100.772 44.5492Z" fill="white"/>
<path d="M46.5438 79.0232C44.4907 81.0702 43.8497 83.1621 44.8633 84.511C46.3957 86.5509 48.7071 85.3049 49.8188 81.8384C50.4442 79.8882 47.8841 77.6869 46.5438 79.0232Z" fill="white"/>
<path d="M40.5241 74.8581C39.9008 75.0225 38.2193 77.8074 38.2193 78.6764C38.2193 80.5959 40.7718 81.7976 41.8436 80.3822C43.107 78.7137 43.8062 77.1073 43.5438 76.4757C43.1004 75.4086 41.5635 74.5854 40.5241 74.8581Z" fill="white"/>
<path d="M33.1576 72.0374C31.924 73.2673 31.9726 74.2119 33.3446 75.6566C34.5135 76.888 35.7243 76.3149 36.8537 73.9957C37.9397 71.7657 34.9948 70.2056 33.1576 72.0374Z" fill="white"/>
<path fill-rule="evenodd" clip-rule="evenodd" d="M59.0671 0.30587C65.2511 1.4128 70.1247 4.89337 73.7137 10.7652L74.6383 12.2779L81.4684 27.9675C81.4684 28.1398 81.6843 28.6515 81.9482 29.1041C82.4053 29.8874 83.8501 33.1603 85.9204 38.0982C86.4422 39.3432 87.2344 41.4255 87.6803 42.725L88.4912 45.088H91.244L91.3608 44.0028C91.5018 42.6967 91.8238 42.1337 92.6545 41.7405C93.5448 41.3191 108.19 41.301 109.195 41.7199C109.282 41.756 109.363 41.7847 109.439 41.8115C109.568 41.8573 109.682 41.8975 109.781 41.9597C110.504 42.4103 110.504 44.0143 110.499 57.2455C110.499 58.3137 110.499 59.4576 110.499 60.6828L110.499 62.7065V62.7071C110.5 77.8147 110.5 79.4306 109.711 80.0569C109.616 80.1319 109.51 80.1927 109.392 80.2608C109.349 80.2854 109.305 80.3109 109.259 80.3383C108.322 80.8963 94.2096 80.9079 93.1469 80.3519C92.3168 79.9179 92.3016 79.9351 91.5488 82.2039C89.5043 88.3666 85.3446 94.4657 80.4695 98.4484C76.7217 101.511 72.211 103.553 67.4992 104.68C60.4631 106.363 54.2798 106.392 47.0927 105.022C39.3722 103.551 31.8181 100.369 26.7442 94.3838C23.4811 90.5345 20.811 86.002 19.379 81.5975L18.83 79.9079L18.0085 80.3177C16.8411 80.8999 2.51759 80.8495 1.68442 80.2607C1.65179 80.2376 1.62005 80.2158 1.58919 80.1948C1.56742 80.18 1.54607 80.1657 1.52516 80.1516C1.41887 80.0801 1.32357 80.016 1.23814 79.9407C0.497955 79.2886 0.498209 77.801 0.500612 63.4253L0.500616 63.4013C0.500746 62.6191 0.500883 61.7987 0.500906 60.9384C0.500936 59.8265 0.500674 58.7814 0.500427 57.799L0.500412 57.7369C0.497029 44.2323 0.496624 42.6111 1.26728 42.0581C1.37243 41.9826 1.49193 41.9271 1.62772 41.8639C1.70138 41.8297 1.77983 41.7932 1.86339 41.7501C2.97461 41.1775 17.8093 41.3055 18.6884 41.8958C19.4271 42.3913 19.9311 43.5466 19.8017 44.4479L19.7243 44.9897L22.5191 44.9882L23.1874 43.2658C25.4154 37.521 28.0959 31.1945 29.0479 29.4343C29.194 29.1636 29.4538 28.654 29.6242 28.3022L29.9351 27.6625L37.8909 10.1429L38.0216 9.92596C42.3578 2.73647 50.881 -1.15945 59.0671 0.30587ZM42.7253 12.3041C45.0094 8.75299 49.3517 6.00382 53.6232 5.40499C56.3689 5.01989 60.6045 5.88032 62.8062 7.27003C66.9604 9.89268 67.8906 11.1468 73.1818 21.2629C74.4927 23.7691 75.6424 26.5198 77.5862 31.7973C78.2844 33.6926 79.3016 36.3506 79.8466 37.7045C81.0726 40.747 82.0129 43.2411 83.021 46.1219L83.796 48.3367L82.9659 48.7032C80.839 49.6413 80.8587 49.6413 78.8314 48.6518C76.1712 47.3528 74.4679 46.757 73.0322 46.6234C71.8234 46.511 71.746 46.4712 71.2056 45.6879C64.1818 35.5098 48.2142 35.3127 40.1844 45.3053C39.243 46.4767 39.1894 46.5105 38.0772 46.6274C36.6313 46.7792 35.1798 47.2787 32.4963 48.5495L30.3684 49.5571L29.1096 49.112C28.4175 48.867 27.7749 48.6009 27.6819 48.5202C27.3548 48.2364 29.2526 42.6105 31.971 35.8037C33.014 33.1931 34.2572 29.961 34.7349 28.6212C36.3821 23.999 40.1424 16.32 42.7253 12.3041ZM44.3204 45.1515C46.6813 42.9871 49.9589 41.4053 52.9321 40.9955C58.2531 40.2616 63.4245 41.985 67.6292 45.8935C67.8638 46.1113 67.0018 46.1566 62.467 46.1642C56.602 46.1738 56.5393 46.1829 54.2875 47.316L53.0969 47.9153L52.5206 47.5363C51.2132 46.6768 48.8143 46.2222 45.2319 46.1556L43.2648 46.1194L44.3204 45.1515ZM94.3051 44.6011L100.772 44.5492C104.33 44.5205 107.307 44.5245 107.388 44.5583C107.47 44.5915 107.536 52.0124 107.536 61.0488V77.4783H94.3051V44.6011ZM3.65964 77.4783V44.5956H16.8912L16.8073 55.2777C16.7613 61.1526 16.7168 68.5513 16.7087 71.7188L16.6935 77.4783H3.65964ZM19.7547 48.1553L21.1369 48.0983C21.8972 48.0671 22.7638 48.0227 23.0626 48L23.6055 47.9587V49.3257C23.6055 50.6595 23.6182 50.6948 24.1485 50.7976C24.4473 50.8561 25.8998 51.3006 27.3765 51.7861C27.5136 51.8311 27.6447 51.8744 27.7702 51.9158L28.0407 52.005C29.3482 52.4355 30.0019 52.6343 30.6292 52.5715C31.2202 52.5122 31.7878 52.2207 32.8567 51.6715C32.9593 51.6188 33.0665 51.5638 33.1788 51.5063C37.2577 49.418 39.4695 48.9935 45.1313 49.2113C51.1737 49.4442 51.1793 49.4527 46.8785 51.9796C41.5545 55.1078 40.9559 55.7203 40.9559 58.039C40.9559 61.456 43.9589 63.8025 48.291 63.7707C50.4154 63.7556 51.4887 63.3322 55.202 61.0442C56.699 60.1223 58.057 59.3168 58.2197 59.2543C58.383 59.1918 59.3926 59.5547 60.4639 60.0603C61.5347 60.5664 63.6747 61.5443 65.2192 62.2343C72.0812 65.2995 72.9422 65.9014 76.4043 70.0549C79.0519 73.2315 79.2566 74.0123 77.8193 75.4459C76.287 76.9732 75.6105 76.5664 71.4523 71.6155C69.8466 69.7041 68.337 67.9373 68.0979 67.6898C67.2091 66.7704 65.472 67.402 65.472 68.6445C65.472 69.1415 67.9305 72.419 68.6242 72.8464C69.0913 73.1337 72.7789 77.9143 72.7748 78.2263C72.7571 79.5974 71.4765 80.8253 70.065 80.8253C69.1191 80.8253 68.7076 80.4154 65.0266 75.8043C61.8037 71.7672 61.1773 71.3246 60.1449 72.3539C59.0908 73.4044 59.1621 73.5476 62.9457 78.004C66.3279 81.9871 66.6014 82.6832 65.2941 83.9868C64.0726 85.2046 62.5286 84.8774 61.2764 83.1349C57.5484 77.945 56.011 76.6546 54.8881 77.7742C54.0034 78.6563 54.2572 79.2506 56.9761 82.6666L57.143 82.8762C57.9836 83.9307 58.3244 84.3583 58.2646 84.7201C58.2238 84.9669 57.9965 85.1831 57.6141 85.5467C57.5782 85.5809 57.541 85.6163 57.5024 85.6532C56.2834 86.8176 55.1899 86.988 52.6849 86.4037C51.2359 86.0655 50.9842 85.8211 51.5807 85.3291C52.7951 84.3275 53.2652 80.7144 52.4225 78.8564C51.5559 76.945 49.6909 75.7115 47.6631 75.708L46.5413 75.706L46.0848 74.7951C45.105 72.8388 42.9286 71.6266 40.8542 71.8806L39.8355 72.0056L39.4473 71.1487C37.9837 67.9177 33.7936 67.1096 31.0974 69.5382C30.3512 70.2106 30.2997 70.2263 29.875 69.9188C28.0752 68.6168 26.8436 68.0885 25.1359 67.8864L24.198 67.775V65.5385C24.198 63.681 24.1475 63.3014 23.9018 63.3014C23.6505 63.3014 23.6055 63.7934 23.6055 66.5501V69.7988H19.8533L19.8244 67.3869C19.8083 66.0602 19.786 61.1904 19.7749 56.5651L19.7547 48.1553ZM87.3931 50.6685V48.1402H91.3426V69.7988H87.5903V66.5501C87.5903 63.9502 87.5372 63.3014 87.3233 63.3014C87.0625 63.3014 86.8006 65.1725 86.8006 67.032V67.7498L85.4098 67.9877C83.7971 68.2635 82.4032 68.9157 81.5797 69.7807C80.7718 70.629 80.6863 70.5736 78.0837 67.5028C77.61 66.9438 76.7015 65.9034 76.0645 65.1907L74.9063 63.8952L75.4811 63.3523C77.38 61.5589 76.5013 59.5451 74.3168 60.6838C73.519 61.0997 73.0256 61.2131 72.0038 61.2156C71.9768 61.2157 71.9504 61.2158 71.9246 61.216L71.9009 61.2161L71.7967 61.217C71.6108 61.2186 71.4553 61.22 71.3005 61.2102C70.5098 61.1603 69.7376 60.819 65.0197 58.7339C64.6959 58.5908 64.3535 58.4394 63.9912 58.2794C61.6014 57.2239 59.2789 56.2208 58.83 56.0499L58.0135 55.7399L54.6828 57.7375C48.9933 61.1496 46.2329 61.5382 44.5388 59.1661C44.5043 59.1178 44.4707 59.0712 44.4382 59.0262L44.4335 59.0197L44.4326 59.0184C44.1588 58.6389 43.9627 58.3672 43.9541 58.0896C43.9323 57.3892 45.1043 56.6519 49.2341 54.0538L49.8709 53.6531C50.6854 53.1405 52.152 52.209 53.1293 51.5839C54.107 50.9589 55.4154 50.1892 56.0377 49.8741L57.1687 49.3005L65.1222 49.362C65.7225 49.3666 66.279 49.3703 66.796 49.3737C71.1594 49.4023 72.7109 49.4125 74.1338 49.8442C74.9189 50.0823 75.6649 50.4489 76.8225 51.0176C77.0712 51.1398 77.339 51.2714 77.6302 51.413C77.795 51.4932 77.9491 51.5689 78.0937 51.6403L78.1632 51.6746L78.3835 51.7835C79.3773 52.2756 79.8791 52.5242 80.397 52.5636C80.9254 52.6039 81.4704 52.4266 82.5715 52.0685L82.5725 52.0682L82.665 52.0381C82.8839 51.9669 83.1241 51.889 83.3896 51.8047C84.8855 51.3294 86.3982 50.8792 86.7511 50.8041L87.3931 50.6685ZM33.3446 75.6566C31.9726 74.2119 31.924 73.2673 33.1576 72.0374C34.9948 70.2056 37.9397 71.7657 36.8537 73.9957C35.7243 76.3149 34.5135 76.888 33.3446 75.6566ZM23.5014 75.7352L23.3664 71.8534C23.3664 71.8534 27.8881 72.429 28.601 72.9996C29.0449 73.3555 29.1859 73.6766 29.3224 74.6459C29.6884 77.2388 31.1131 78.7823 34.014 79.7284C34.9493 80.0334 35.0858 80.1564 35.5226 81.0843C36.333 82.8072 38.6313 84.5584 40.0954 84.5689C40.9847 84.5755 41.3654 84.8139 41.5954 85.51C42.2491 87.4855 44.7749 88.9145 47.564 88.8873C48.5999 88.8772 49.7465 89.0168 50.7597 89.2774C54.6914 90.2871 56.6667 90.2654 60.9235 89.1665C65.6252 87.9527 67.1616 87.1261 68.5933 85.0382C68.9568 84.509 69.1651 84.4107 70.1555 84.3033C73.11 83.9822 74.7511 82.6359 75.4154 79.9885C75.5438 79.4774 75.6146 79.4471 76.6833 79.4426C79.2334 79.433 81.3704 77.3911 81.612 74.7341C81.7035 73.729 82.6055 72.5556 83.2865 72.5556C83.3977 72.5556 89.3678 72.3423 89.3678 72.3423C89.3678 72.3423 86.3264 80.2325 85.0878 82.6958C76.3107 100.156 53.6889 106.114 37.2814 95.2874C30.6738 90.9267 24.5196 82.1948 23.5014 75.7352ZM38.2193 78.6764C38.2193 77.8074 39.9008 75.0225 40.5241 74.8581C41.5635 74.5854 43.1004 75.4086 43.5438 76.4757C43.8062 77.1073 43.107 78.7137 41.8436 80.3822C40.7718 81.7976 38.2193 80.5959 38.2193 78.6764ZM44.8633 84.511C43.8497 83.1621 44.4907 81.0702 46.5438 79.0232C47.8841 77.6869 50.4442 79.8882 49.8188 81.8384C48.7071 85.3049 46.3957 86.5509 44.8633 84.511Z" fill="#1E043C"/>
<path d="M23.3664 71.8534L23.5014 75.7352C24.5196 82.1948 30.6738 90.9267 37.2814 95.2874C53.6889 106.114 76.3107 100.156 85.0878 82.6958C86.3264 80.2325 89.3678 72.3423 89.3678 72.3423C89.3678 72.3423 83.3977 72.5556 83.2865 72.5556C82.6055 72.5556 81.7035 73.729 81.612 74.7341C81.3704 77.3911 79.2334 79.433 76.6833 79.4426C75.6146 79.4471 75.5438 79.4774 75.4154 79.9885C74.7511 82.6359 73.11 83.9822 70.1555 84.3033C69.1651 84.4107 68.9568 84.509 68.5933 85.0382C67.1616 87.1261 65.6252 87.9527 60.9235 89.1665C56.6667 90.2654 54.6914 90.2871 50.7597 89.2774C49.7465 89.0168 48.5999 88.8772 47.564 88.8873C44.7749 88.9145 42.2491 87.4855 41.5954 85.51C41.3654 84.8139 40.9847 84.5755 40.0954 84.5689C38.6313 84.5584 36.333 82.8072 35.5226 81.0843C35.0858 80.1564 34.9493 80.0334 34.014 79.7284C31.1131 78.7823 29.6884 77.2388 29.3224 74.6459C29.1859 73.6766 29.0449 73.3555 28.601 72.9996C27.8881 72.429 23.3664 71.8534 23.3664 71.8534Z" fill="#EAF45F"/>
<path d="M53.6232 5.40499C49.3517 6.00382 45.0094 8.75299 42.7253 12.3041C40.1424 16.32 36.3821 23.999 34.7349 28.6212C34.2572 29.961 33.014 33.1931 31.971 35.8037C29.2526 42.6105 27.3548 48.2364 27.6819 48.5202C27.7749 48.6009 28.4175 48.867 29.1096 49.112L30.3684 49.5571L32.4963 48.5495C35.1798 47.2787 36.6313 46.7792 38.0772 46.6274C39.1894 46.5105 39.243 46.4767 40.1844 45.3053C48.2142 35.3127 64.1818 35.5098 71.2056 45.6879C71.746 46.4712 71.8234 46.511 73.0322 46.6234C74.4679 46.757 76.1712 47.3528 78.8314 48.6518C80.8587 49.6413 80.839 49.6413 82.9659 48.7032L83.796 48.3367L83.021 46.1219C82.0129 43.2411 81.0726 40.747 79.8466 37.7045C79.3016 36.3506 78.2844 33.6926 77.5862 31.7973C75.6424 26.5198 74.4927 23.7691 73.1818 21.2629C67.8906 11.1468 66.9604 9.89268 62.8062 7.27003C60.6045 5.88032 56.3689 5.01989 53.6232 5.40499Z" fill="#E9F160"/>
<path fill-rule="evenodd" clip-rule="evenodd" d="M82.828 81.5663C83.3899 80.4489 84.4186 77.9685 85.3454 75.6591C85.4352 75.4351 85.5236 75.2141 85.6099 74.9977C85.0601 75.0171 84.5338 75.0356 84.121 75.0497C83.7565 78.6149 81.0058 81.5474 77.4404 81.9225C76.9667 83.0944 76.2612 84.1352 75.2503 84.9645C73.8938 86.0773 72.2259 86.613 70.4336 86.8084C69.5854 87.9644 68.6051 88.8839 67.1854 89.648C65.7436 90.424 63.9248 90.9952 61.557 91.6064C59.3554 92.1748 57.567 92.513 55.7473 92.5329C53.9142 92.5529 52.1947 92.2485 50.1292 91.7181L50.1282 91.7179C49.328 91.512 48.4019 91.3996 47.5887 91.4075C44.429 91.4383 40.9041 89.9558 39.498 87.048C38.1595 86.8698 36.9134 86.1453 36.0289 85.4713C34.9481 84.6477 33.8587 83.4823 33.2342 82.1551C33.2287 82.1433 33.2232 82.1317 33.2179 82.1205C31.5161 81.5642 30.0068 80.7564 28.8576 79.5115C27.6836 78.2396 27.0627 76.7043 26.8215 75.0128C26.5793 74.9516 26.2995 74.8901 25.9992 74.83L26.0221 75.4873C26.4813 78.1759 28.038 81.5497 30.3636 84.8494C32.7129 88.1828 35.6873 91.213 38.6765 93.1857C53.8303 103.185 74.736 97.6635 82.828 81.5663ZM37.2814 95.2874C30.6738 90.9267 24.5196 82.1948 23.5014 75.7352L23.3664 71.8534C23.3664 71.8534 24.6189 72.0129 25.9094 72.2471C27.0709 72.4579 28.2633 72.7294 28.601 72.9996C29.0449 73.3555 29.1859 73.6766 29.3224 74.6459C29.6884 77.2388 31.1131 78.7823 34.014 79.7284C34.9493 80.0334 35.0858 80.1564 35.5226 81.0843C36.333 82.8072 38.6313 84.5584 40.0954 84.5689C40.9847 84.5755 41.3654 84.8139 41.5954 85.51C42.2491 87.4855 44.7749 88.9145 47.564 88.8873C48.5999 88.8772 49.7465 89.0168 50.7597 89.2774C54.6914 90.2871 56.6667 90.2654 60.9235 89.1665C65.6252 87.9527 67.1616 87.1261 68.5933 85.0382C68.9568 84.509 69.1651 84.4107 70.1555 84.3033C73.11 83.9822 74.7511 82.6359 75.4154 79.9885C75.5438 79.4774 75.6146 79.4471 76.6833 79.4426C79.2334 79.433 81.3704 77.3911 81.612 74.7341C81.7035 73.729 82.6055 72.5556 83.2865 72.5556C83.3451 72.5556 85.0354 72.4962 86.619 72.4401C88.0362 72.3899 89.3678 72.3423 89.3678 72.3423C89.3678 72.3423 88.953 73.4185 88.3674 74.9C87.3672 77.43 85.8689 81.1422 85.0878 82.6958C76.3107 100.156 53.6889 106.114 37.2814 95.2874Z" fill="#AAD736"/>
<path fill-rule="evenodd" clip-rule="evenodd" d="M53.8677 5.11035C50.0983 5.54546 45.8084 7.95385 43.4521 10.9576C41.0981 13.9582 36.8658 22.4444 34.3866 29.1349C34.0101 30.1515 33.0948 32.5446 32.3531 34.4526C29.2962 42.3152 28.2025 45.3719 27.5452 47.8897L27.2947 48.8488L27.6177 48.9916C28.0855 49.1986 30.0087 49.9025 30.1065 49.9025C30.152 49.9025 30.8722 49.5764 31.7069 49.1778C34.9538 47.6273 36.2979 47.1409 37.8244 46.9638C39.0115 46.8259 39.0345 46.8121 39.951 45.689C48.0915 35.7145 63.7954 35.6108 70.8854 45.4849C71.8847 46.8763 71.7477 46.7815 72.9769 46.9324C74.7088 47.1448 76.1047 47.6295 78.9092 48.9918C80.9787 49.9973 80.9885 49.9977 83.0006 49.1068C83.5049 48.8835 83.9175 48.6947 83.9175 48.6874C83.9175 48.451 81.6386 42.2091 80.4555 39.2045C79.5173 36.8223 78.8132 34.9702 77.328 30.9777C75.0799 24.9345 74.4408 23.4941 71.7209 18.3404C68.0723 11.427 66.8151 9.75379 63.6825 7.64249C60.9212 5.78146 56.9435 4.75516 53.8677 5.11035ZM56.5041 7.70893C61.1388 8.24796 64.2065 10.3541 66.9067 14.8506C68.3265 17.2149 71.3599 22.9973 72.2939 25.1197C73.2288 27.2443 73.8219 28.7716 75.8689 34.3247C76.167 35.1333 76.8435 36.8929 77.3724 38.2348C79.0645 42.5284 80.676 46.8668 80.6052 46.938C80.5911 46.9523 79.9808 46.6867 79.2491 46.3476C76.7353 45.1827 74.3362 44.3971 73.2928 44.3971C73.2684 44.3971 72.9844 44.0523 72.6618 43.6306C64.4615 32.9121 47.0101 32.9631 38.2907 43.7312C37.8166 44.3166 37.7367 44.3878 37.5137 44.4251C35.5467 44.7539 34.3796 45.1426 31.8001 46.3278C31.1305 46.6354 30.5825 46.8769 30.5825 46.8644C30.5825 46.8295 33.3042 39.1605 33.8339 37.7031C34.0903 36.9977 34.5709 35.7308 34.9019 34.8877C35.2332 34.0447 35.8527 32.4119 36.2789 31.2593C37.6593 27.5253 38.1336 26.366 39.5035 23.3785C41.3357 19.3828 43.7914 14.8038 45.0506 13.0352C46.9925 10.3081 50.7026 8.0891 54.0486 7.65419C54.5194 7.59291 55.7411 7.62008 56.5041 7.70893Z" fill="#ACD434"/>
</svg>
