<svg xmlns="http://www.w3.org/2000/svg" viewBox="0 0 48 48" width="100%" height="100%">
  <rect x="4" y="4" width="40" height="40" rx="10" fill="#EB5424"/>
  <path fill="#FFFFFF" d="M24,12c-6.6,0-12,5.4-12,12s5.4,12,12,12s12-5.4,12-12S30.6,12,24,12z M24,30c-3.3,0-6-2.7-6-6s2.7-6,6-6s6,2.7,6,6S27.3,30,24,30z"/>
  <path fill="#FFFFFF" d="M24,4c-4.7,0-9.2,1.6-12.8,4.4l4.9,4.9C18.6,11.6,21.2,10.5,24,10.5c2.8,0,5.4,1.1,7.9,2.8l4.9-4.9C33.2,5.6,28.7,4,24,4z"/>
  <path fill="#FFFFFF" d="M36.8,16.1l-4.9,4.9c1.7,2.5,2.8,5.1,2.8,7.9c0,2.8-1.1,5.4-2.8,7.9l4.9,4.9c2.9-3.6,4.4-8.1,4.4-12.8C41.2,24.2,39.6,19.7,36.8,16.1z"/>
  <path fill="#FFFFFF" d="M8.4,31.9l4.9-4.9c-1.7-2.5-2.8-5.1-2.8-7.9c0-2.8,1.1-5.4,2.8-7.9l-4.9-4.9c-2.9,3.6-4.4,8.1-4.4,12.8C4,23.8,5.6,28.3,8.4,31.9z"/>
  <path fill="#FFFFFF" d="M24,37.5c-2.8,0-5.4-1.1-7.9-2.8l-4.9,4.9c3.6,2.9,8.1,4.4,12.8,4.4c4.7,0,9.2-1.6,12.8-4.4l-4.9-4.9C29.4,36.4,26.8,37.5,24,37.5z"/>
</svg> 