<svg xmlns="http://www.w3.org/2000/svg" viewBox="0 0 48 48" width="100%" height="100%">
  <rect width="48" height="48" fill="#231F20" rx="6"/>
  <path fill="#FFFFFF" d="M8,24c0-8.8,7.2-16,16-16s16,7.2,16,16s-7.2,16-16,16S8,32.8,8,24z M12,24c0,6.6,5.4,12,12,12s12-5.4,12-12s-5.4-12-12-12S12,17.4,12,24z"/>
  <path fill="#FFFFFF" d="M24,36c-6.6,0-12-5.4-12-12s5.4-12,12-12s12,5.4,12,12S30.6,36,24,36z M24,14c-5.5,0-10,4.5-10,10s4.5,10,10,10s10-4.5,10-10S29.5,14,24,14z"/>
  <path fill="#FFFFFF" d="M24,32c-4.4,0-8-3.6-8-8s3.6-8,8-8s8,3.6,8,8S28.4,32,24,32z M24,18c-3.3,0-6,2.7-6,6s2.7,6,6,6s6-2.7,6-6S27.3,18,24,18z"/>
  <circle cx="24" cy="24" r="4" fill="#FFFFFF"/>
</svg> 