<svg version="1.1" id="Layer_1" xmlns="http://www.w3.org/2000/svg" xmlns:xlink="http://www.w3.org/1999/xlink" x="0px" y="0px"
	 width="100%" viewBox="0 0 200 200" enable-background="new 0 0 200 200" xml:space="preserve">
<path fill="#FDFDFD" opacity="1.000000" stroke="none" 
	d="
M120.000000,201.000000 
	C80.024696,201.000000 40.549400,201.000000 1.037050,201.000000 
	C1.037050,134.399734 1.037050,67.799454 1.037050,1.099581 
	C67.558464,1.099581 134.117126,1.099581 200.837891,1.099581 
	C200.837891,67.666351 200.837891,134.333145 200.837891,201.000000 
	C174.133072,201.000000 147.316528,201.000000 120.000000,201.000000 
M121.807747,22.635265 
	C119.377419,21.353905 116.947090,20.072542 113.897095,18.464468 
	C113.897095,42.772701 113.897095,66.339645 113.897095,89.939926 
	C105.050674,89.939926 96.628220,89.939926 87.677261,89.939926 
	C87.677261,81.222061 87.677261,72.709961 87.677261,63.528301 
	C80.513008,67.575287 74.094604,71.321213 67.555428,74.842888 
	C64.399445,76.542542 63.399597,78.786781 63.426781,82.408028 
	C63.608166,106.570023 64.196846,130.761337 63.222431,154.885345 
	C62.767117,166.157837 65.285995,173.513504 76.423515,177.241592 
	C80.275238,178.530884 83.616005,181.346603 88.039932,183.968765 
	C88.039932,159.126266 88.039932,135.708557 88.039932,112.252411 
	C96.811943,112.252411 105.231079,112.252411 114.193436,112.252411 
	C114.193436,120.969261 114.193436,129.470139 114.193436,138.583603 
	C121.749504,134.219559 128.714066,130.399902 135.415970,126.164597 
	C136.849548,125.258644 138.122177,122.849884 138.132217,121.125648 
	C138.298157,92.630516 138.300247,64.133820 138.125092,35.638794 
	C138.114655,33.939873 136.700211,31.676540 135.249374,30.668795 
	C131.174423,27.838326 126.738602,25.527395 121.807747,22.635265 
M79.679184,51.172806 
	C82.375626,49.146416 87.151276,47.344109 87.398109,45.053711 
	C88.323265,36.469467 87.768517,27.725729 87.768517,18.266102 
	C82.961555,21.054308 79.111786,23.304585 75.245834,25.526722 
	C58.557762,35.118980 41.838219,44.657337 25.227398,54.381474 
	C23.973375,55.115589 22.749874,57.146942 22.742527,58.581581 
	C22.597509,86.892677 22.612570,115.204788 22.708551,143.516312 
	C22.712751,144.755325 23.459703,146.552338 24.433172,147.138260 
	C31.751705,151.543304 39.214027,155.709457 47.022362,160.173828 
	C47.022362,131.376099 47.122063,103.243835 46.907448,75.113983 
	C46.877625,71.204750 48.125336,69.133514 51.396545,67.339836 
	C60.703346,62.236698 69.859451,56.858719 79.679184,51.172806 
M154.752045,112.499176 
	C154.752045,117.330315 154.388809,122.197510 154.863800,126.981491 
	C155.263641,131.008621 153.516418,132.985062 150.331039,134.779160 
	C139.054886,141.130249 127.859032,147.625290 116.696297,154.174149 
	C115.578033,154.830200 114.148720,156.204117 114.122353,157.275818 
	C113.911797,165.836853 114.004799,174.405350 114.004799,183.019958 
	C114.894920,182.957047 115.264763,183.038101 115.507881,182.898483 
	C135.945023,171.161682 156.395081,159.446671 176.743149,147.557129 
	C177.948120,146.853058 178.987000,144.739471 178.993851,143.276611 
	C179.125641,115.123024 179.127335,86.968491 178.989243,58.814964 
	C178.982056,57.348938 177.863739,55.278160 176.630783,54.529213 
	C169.600128,50.258492 162.377640,46.303581 155.122238,42.185669 
	C154.936813,42.908543 154.787598,43.219196 154.787338,43.529984 
	C154.768021,66.186493 154.760513,88.843002 154.752045,112.499176 
z"/>
<path fill="#020202" opacity="1.000000" stroke="none" 
	d="
M122.126419,22.823416 
	C126.738602,25.527395 131.174423,27.838326 135.249374,30.668795 
	C136.700211,31.676540 138.114655,33.939873 138.125092,35.638794 
	C138.300247,64.133820 138.298157,92.630516 138.132217,121.125648 
	C138.122177,122.849884 136.849548,125.258644 135.415970,126.164597 
	C128.714066,130.399902 121.749504,134.219559 114.193436,138.583603 
	C114.193436,129.470139 114.193436,120.969261 114.193436,112.252411 
	C105.231079,112.252411 96.811943,112.252411 88.039932,112.252411 
	C88.039932,135.708557 88.039932,159.126266 88.039932,183.968765 
	C83.616005,181.346603 80.275238,178.530884 76.423515,177.241592 
	C65.285995,173.513504 62.767117,166.157837 63.222431,154.885345 
	C64.196846,130.761337 63.608166,106.570023 63.426781,82.408028 
	C63.399597,78.786781 64.399445,76.542542 67.555428,74.842888 
	C74.094604,71.321213 80.513008,67.575287 87.677261,63.528301 
	C87.677261,72.709961 87.677261,81.222061 87.677261,89.939926 
	C96.628220,89.939926 105.050674,89.939926 113.897095,89.939926 
	C113.897095,66.339645 113.897095,42.772701 113.897095,18.464468 
	C116.947090,20.072542 119.377419,21.353905 122.126419,22.823416 
z"/>
<path fill="#020202" opacity="1.000000" stroke="none" 
	d="
M79.377029,51.380859 
	C69.859451,56.858719 60.703346,62.236698 51.396545,67.339836 
	C48.125336,69.133514 46.877625,71.204750 46.907448,75.113983 
	C47.122063,103.243835 47.022362,131.376099 47.022362,160.173828 
	C39.214027,155.709457 31.751705,151.543304 24.433172,147.138260 
	C23.459703,146.552338 22.712751,144.755325 22.708551,143.516312 
	C22.612570,115.204788 22.597509,86.892677 22.742527,58.581581 
	C22.749874,57.146942 23.973375,55.115589 25.227398,54.381474 
	C41.838219,44.657337 58.557762,35.118980 75.245834,25.526722 
	C79.111786,23.304585 82.961555,21.054308 87.768517,18.266102 
	C87.768517,27.725729 88.323265,36.469467 87.398109,45.053711 
	C87.151276,47.344109 82.375626,49.146416 79.377029,51.380859 
z"/>
<path fill="#010101" opacity="1.000000" stroke="none" 
	d="
M154.752045,111.999344 
	C154.760513,88.843002 154.768021,66.186493 154.787338,43.529984 
	C154.787598,43.219196 154.936813,42.908543 155.122238,42.185669 
	C162.377640,46.303581 169.600128,50.258492 176.630783,54.529213 
	C177.863739,55.278160 178.982056,57.348938 178.989243,58.814964 
	C179.127335,86.968491 179.125641,115.123024 178.993851,143.276611 
	C178.987000,144.739471 177.948120,146.853058 176.743149,147.557129 
	C156.395081,159.446671 135.945023,171.161682 115.507881,182.898483 
	C115.264763,183.038101 114.894920,182.957047 114.004799,183.019958 
	C114.004799,174.405350 113.911797,165.836853 114.122353,157.275818 
	C114.148720,156.204117 115.578033,154.830200 116.696297,154.174149 
	C127.859032,147.625290 139.054886,141.130249 150.331039,134.779160 
	C153.516418,132.985062 155.263641,131.008621 154.863800,126.981491 
	C154.388809,122.197510 154.752045,117.330315 154.752045,111.999344 
z"/>
</svg>