<svg xmlns="http://www.w3.org/2000/svg" viewBox="0 0 1454.5 637" width="1454.5" height="637" style="--bg:#0f172a;--fg:#e2e8f0;--line:#38bdf8;--accent:#7dd3fc;--muted:#94a3b8;--surface:#1e293b;--border:#1e3a5f;background:var(--bg)">
<style>
  @import url('https://fonts.googleapis.com/css2?family=Inter:wght@400;500;600;700&amp;display=swap');
  text { font-family: 'Inter', system-ui, sans-serif; }
  svg {
    /* Derived from --bg and --fg (overridable via --line, --accent, etc.) */
    --_text:          var(--fg);
    --_text-sec:      var(--muted, color-mix(in srgb, var(--fg) 60%, var(--bg)));
    --_text-muted:    var(--muted, color-mix(in srgb, var(--fg) 40%, var(--bg)));
    --_text-faint:    color-mix(in srgb, var(--fg) 25%, var(--bg));
    --_line:          var(--line, color-mix(in srgb, var(--fg) 30%, var(--bg)));
    --_arrow:         var(--accent, color-mix(in srgb, var(--fg) 50%, var(--bg)));
    --_node-fill:     var(--surface, color-mix(in srgb, var(--fg) 3%, var(--bg)));
    --_node-stroke:   var(--border, color-mix(in srgb, var(--fg) 20%, var(--bg)));
    --_group-fill:    var(--bg);
    --_group-hdr:     color-mix(in srgb, var(--fg) 5%, var(--bg));
    --_inner-stroke:  color-mix(in srgb, var(--fg) 12%, var(--bg));
    --_key-badge:     color-mix(in srgb, var(--fg) 10%, var(--bg));
  }
</style>
<defs>
  <marker id="arrowhead" markerWidth="8" markerHeight="4.8" refX="8" refY="2.4" orient="auto">
    <polygon points="0 0, 8 2.4, 0 4.8" fill="var(--_arrow)" />
  </marker>
  <marker id="arrowhead-start" markerWidth="8" markerHeight="4.8" refX="0" refY="2.4" orient="auto-start-reverse">
    <polygon points="8 0, 0 2.4, 8 4.8" fill="var(--_arrow)" />
  </marker>
</defs>
<rect x="40" y="40" width="1374.5" height="557" rx="0" ry="0" fill="var(--_group-fill)" stroke="var(--_node-stroke)" stroke-width="1" />
<rect x="40" y="40" width="1374.5" height="28" rx="0" ry="0" fill="var(--_group-hdr)" stroke="var(--_node-stroke)" stroke-width="1" />
<text x="52" y="54" dy="0.35em" font-size="12" font-weight="600" fill="var(--_text-sec)">Google ADK</text>
<rect x="522.3499999999999" y="76" width="872.15" height="501" rx="0" ry="0" fill="var(--_group-fill)" stroke="var(--_node-stroke)" stroke-width="1" />
<rect x="522.3499999999999" y="76" width="872.15" height="28" rx="0" ry="0" fill="var(--_group-hdr)" stroke="var(--_node-stroke)" stroke-width="1" />
<text x="534.3499999999999" y="90" dy="0.35em" font-size="12" font-weight="600" fill="var(--_text-sec)">Your Agent</text>
<rect x="542.35" y="112" width="309.54999999999995" height="112" rx="0" ry="0" fill="var(--_group-fill)" stroke="var(--_node-stroke)" stroke-width="1" />
<rect x="542.35" y="112" width="309.54999999999995" height="28" rx="0" ry="0" fill="var(--_group-hdr)" stroke="var(--_node-stroke)" stroke-width="1" />
<text x="554.35" y="126" dy="0.35em" font-size="12" font-weight="600" fill="var(--_text-sec)">MCP Tools</text>
<rect x="871.9000000000001" y="112" width="502.5999999999999" height="112" rx="0" ry="0" fill="var(--_group-fill)" stroke="var(--_node-stroke)" stroke-width="1" />
<rect x="871.9000000000001" y="112" width="502.5999999999999" height="28" rx="0" ry="0" fill="var(--_group-hdr)" stroke="var(--_node-stroke)" stroke-width="1" />
<text x="883.9000000000001" y="126" dy="0.35em" font-size="12" font-weight="600" fill="var(--_text-sec)">A2A Remote Agents</text>
<polyline points="799.6,204 799.6,501" fill="none" stroke="var(--_line)" stroke-width="0.75" marker-end="url(#arrowhead)" />
<polyline points="1286.45,204 1286.45,501" fill="none" stroke="var(--_line)" stroke-width="0.75" marker-end="url(#arrowhead)" />
<rect x="757.28" y="339" width="84.64" height="27" rx="4" ry="4" fill="var(--bg)" stroke="var(--_inner-stroke)" stroke-width="0.5" />
<text x="799.6" y="352.5" text-anchor="middle" dy="0.35em" font-size="11" font-weight="400" fill="var(--_text-muted)">MCP Protocol</text>
<rect x="1244.13" y="339" width="84.64" height="27" rx="4" ry="4" fill="var(--bg)" stroke="var(--_inner-stroke)" stroke-width="0.5" />
<text x="1286.45" y="352.5" text-anchor="middle" dy="0.35em" font-size="11" font-weight="400" fill="var(--_text-muted)">A2A Protocol</text>
<rect x="61.999999999999986" y="501" width="210.75000000000003" height="36" rx="0" ry="0" fill="#0369a1" stroke="#38bdf8" stroke-width="0.75" />
<rect x="296.74999999999994" y="501" width="203.60000000000002" height="36" rx="0" ry="0" fill="#0369a1" stroke="#7dd3fc" stroke-width="0.75" />
<rect x="729.975" y="501" width="139.25" height="36" rx="0" ry="0" fill="#0f172a" stroke="#38bdf8" stroke-width="0.75" />
<rect x="1216.825" y="501" width="139.25" height="36" rx="0" ry="0" fill="#0f172a" stroke="#7dd3fc" stroke-width="0.75" />
<rect x="564.35" y="168" width="89.2" height="36" rx="0" ry="0" fill="#1e3a5f" stroke="#38bdf8" stroke-width="0.75" />
<rect x="677.5500000000001" y="168" width="67.75" height="36" rx="0" ry="0" fill="#1e3a5f" stroke="#38bdf8" stroke-width="0.75" />
<rect x="769.3000000000001" y="168" width="60.6" height="36" rx="0" ry="0" fill="#1e3a5f" stroke="#38bdf8" stroke-width="0.75" />
<rect x="893.9000000000001" y="168" width="132.10000000000002" height="36" rx="0" ry="0" fill="#1e3a5f" stroke="#7dd3fc" stroke-width="0.75" />
<rect x="1050" y="168" width="146.4" height="36" rx="0" ry="0" fill="#1e3a5f" stroke="#7dd3fc" stroke-width="0.75" />
<rect x="1220.4" y="168" width="132.10000000000002" height="36" rx="0" ry="0" fill="#1e3a5f" stroke="#7dd3fc" stroke-width="0.75" />
<text x="167.375" y="519" text-anchor="middle" dy="0.35em" font-size="13" font-weight="500" fill="#e2e8f0">Cloud Run: Zero Trust A2A</text>
<text x="398.54999999999995" y="519" text-anchor="middle" dy="0.35em" font-size="13" font-weight="500" fill="#e2e8f0">Interactions API: Gemini</text>
<text x="799.6" y="519" text-anchor="middle" dy="0.35em" font-size="13" font-weight="500" fill="#94a3b8">Local Resources</text>
<text x="1286.45" y="519" text-anchor="middle" dy="0.35em" font-size="13" font-weight="500" fill="#94a3b8">External Agents</text>
<text x="608.95" y="186" text-anchor="middle" dy="0.35em" font-size="13" font-weight="500" fill="#cbd5e1">Database</text>
<text x="711.4250000000001" y="186" text-anchor="middle" dy="0.35em" font-size="13" font-weight="500" fill="#cbd5e1">Files</text>
<text x="799.6" y="186" text-anchor="middle" dy="0.35em" font-size="13" font-weight="500" fill="#cbd5e1">APIs</text>
<text x="959.95" y="186" text-anchor="middle" dy="0.35em" font-size="13" font-weight="500" fill="#cbd5e1">Research Agent</text>
<text x="1123.2" y="186" text-anchor="middle" dy="0.35em" font-size="13" font-weight="500" fill="#cbd5e1">Scheduling Agent</text>
<text x="1286.45" y="186" text-anchor="middle" dy="0.35em" font-size="13" font-weight="500" fill="#cbd5e1">Analysis Agent</text>
</svg>