<svg xmlns="http://www.w3.org/2000/svg" viewBox="0 0 780.0500000000001 449" width="780.0500000000001" height="449" style="--bg:#0f172a;--fg:#e2e8f0;--line:#38bdf8;--accent:#7dd3fc;--muted:#94a3b8;--surface:#1e293b;--border:#1e3a5f;background:var(--bg)">
<style>
  @import url('https://fonts.googleapis.com/css2?family=Inter:wght@400;500;600;700&amp;display=swap');
  text { font-family: 'Inter', system-ui, sans-serif; }
  svg {
    /* Derived from --bg and --fg (overridable via --line, --accent, etc.) */
    --_text:          var(--fg);
    --_text-sec:      var(--muted, color-mix(in srgb, var(--fg) 60%, var(--bg)));
    --_text-muted:    var(--muted, color-mix(in srgb, var(--fg) 40%, var(--bg)));
    --_text-faint:    color-mix(in srgb, var(--fg) 25%, var(--bg));
    --_line:          var(--line, color-mix(in srgb, var(--fg) 30%, var(--bg)));
    --_arrow:         var(--accent, color-mix(in srgb, var(--fg) 50%, var(--bg)));
    --_node-fill:     var(--surface, color-mix(in srgb, var(--fg) 3%, var(--bg)));
    --_node-stroke:   var(--border, color-mix(in srgb, var(--fg) 20%, var(--bg)));
    --_group-fill:    var(--bg);
    --_group-hdr:     color-mix(in srgb, var(--fg) 5%, var(--bg));
    --_inner-stroke:  color-mix(in srgb, var(--fg) 12%, var(--bg));
    --_key-badge:     color-mix(in srgb, var(--fg) 10%, var(--bg));
  }
</style>
<defs>
  <marker id="arrowhead" markerWidth="8" markerHeight="4.8" refX="8" refY="2.4" orient="auto">
    <polygon points="0 0, 8 2.4, 0 4.8" fill="var(--_arrow)" />
  </marker>
  <marker id="arrowhead-start" markerWidth="8" markerHeight="4.8" refX="0" refY="2.4" orient="auto-start-reverse">
    <polygon points="8 0, 0 2.4, 8 4.8" fill="var(--_arrow)" />
  </marker>
</defs>
<rect x="200.60000000000002" y="182" width="539.45" height="207" rx="0" ry="0" fill="var(--_group-fill)" stroke="var(--_node-stroke)" stroke-width="1" />
<rect x="200.60000000000002" y="182" width="539.45" height="28" rx="0" ry="0" fill="var(--_group-hdr)" stroke="var(--_node-stroke)" stroke-width="1" />
<text x="212.60000000000002" y="196" dy="0.35em" font-size="12" font-weight="600" fill="var(--_text-sec)">MCP Host</text>
<polyline points="100.6,302 220.60000000000002,302" fill="none" stroke="var(--_line)" stroke-width="0.75" marker-end="url(#arrowhead)" />
<polyline points="324.1,302 344.1,302 344.1,349 562.925,349" fill="none" stroke="var(--_line)" stroke-width="0.75" marker-end="url(#arrowhead)" marker-start="url(#arrowhead-start)" />
<polyline points="324.1,302 344.1,302 344.1,246.5 628.975,246.5 628.975,76" fill="none" stroke="var(--_line)" stroke-width="0.75" marker-end="url(#arrowhead)" />
<polyline points="324.1,302 344.1,302 344.1,283.5 628.975,283.5 628.975,136" fill="none" stroke="var(--_line)" stroke-width="0.75" marker-end="url(#arrowhead)" />
<polyline points="324.1,302 344.1,302 344.1,320.5 628.975,320.5 628.975,196" fill="none" stroke="var(--_line)" stroke-width="0.75" marker-end="url(#arrowhead)" />
<rect x="408.7" y="233" width="44.6" height="27" rx="4" ry="4" fill="var(--bg)" stroke="var(--_inner-stroke)" stroke-width="0.5" />
<text x="431" y="246.5" text-anchor="middle" dy="0.35em" font-size="11" font-weight="400" fill="var(--_text-muted)">stdio</text>
<rect x="380.1" y="270" width="101.8" height="27" rx="4" ry="4" fill="var(--bg)" stroke="var(--_inner-stroke)" stroke-width="0.5" />
<text x="431" y="283.5" text-anchor="middle" dy="0.35em" font-size="11" font-weight="400" fill="var(--_text-muted)">Streamable HTTP</text>
<rect x="397.26" y="307" width="67.48" height="27" rx="4" ry="4" fill="var(--bg)" stroke="var(--_inner-stroke)" stroke-width="0.5" />
<text x="431" y="320.5" text-anchor="middle" dy="0.35em" font-size="11" font-weight="400" fill="var(--_text-muted)">OAuth 2.1</text>
<rect x="40" y="284" width="60.6" height="36" rx="0" ry="0" fill="#0369a1" stroke="#38bdf8" stroke-width="0.75" />
<rect x="548.625" y="40" width="160.70000000000002" height="36" rx="0" ry="0" fill="#1e293b" stroke="#1e3a5f" stroke-width="0.75" />
<rect x="559.35" y="100" width="139.25" height="36" rx="0" ry="0" fill="#1e293b" stroke="#1e3a5f" stroke-width="0.75" />
<rect x="537.9" y="160" width="182.15" height="36" rx="0" ry="0" fill="#1e293b" stroke="#1e3a5f" stroke-width="0.75" />
<rect x="220.60000000000002" y="284" width="103.5" height="36" rx="0" ry="0" fill="#1e3a5f" stroke="#38bdf8" stroke-width="0.75" />
<rect x="562.925" y="331" width="132.10000000000002" height="36" rx="0" ry="0" fill="#1e3a5f" stroke="#7dd3fc" stroke-width="0.75" />
<text x="70.3" y="302" text-anchor="middle" dy="0.35em" font-size="13" font-weight="500" fill="#e2e8f0">User</text>
<text x="628.975" y="58" text-anchor="middle" dy="0.35em" font-size="13" font-weight="500" fill="#cbd5e1">Server A: Database</text>
<text x="628.975" y="118" text-anchor="middle" dy="0.35em" font-size="13" font-weight="500" fill="#cbd5e1">Server B: Files</text>
<text x="628.975" y="178" text-anchor="middle" dy="0.35em" font-size="13" font-weight="500" fill="#cbd5e1">Server C: API Gateway</text>
<text x="272.35" y="302" text-anchor="middle" dy="0.35em" font-size="13" font-weight="500" fill="#e2e8f0">MCP Client</text>
<text x="628.9749999999999" y="349" text-anchor="middle" dy="0.35em" font-size="13" font-weight="500" fill="#e2e8f0">LLM / AI Model</text>
</svg>