<svg xmlns="http://www.w3.org/2000/svg" viewBox="0 0 1094.65 449" width="1094.65" height="449" style="--bg:#0f172a;--fg:#e2e8f0;--line:#38bdf8;--accent:#7dd3fc;--muted:#94a3b8;--surface:#1e293b;--border:#1e3a5f;background:var(--bg)">
<style>
  @import url('https://fonts.googleapis.com/css2?family=Inter:wght@400;500;600;700&amp;display=swap');
  text { font-family: 'Inter', system-ui, sans-serif; }
  svg {
    /* Derived from --bg and --fg (overridable via --line, --accent, etc.) */
    --_text:          var(--fg);
    --_text-sec:      var(--muted, color-mix(in srgb, var(--fg) 60%, var(--bg)));
    --_text-muted:    var(--muted, color-mix(in srgb, var(--fg) 40%, var(--bg)));
    --_text-faint:    color-mix(in srgb, var(--fg) 25%, var(--bg));
    --_line:          var(--line, color-mix(in srgb, var(--fg) 30%, var(--bg)));
    --_arrow:         var(--accent, color-mix(in srgb, var(--fg) 50%, var(--bg)));
    --_node-fill:     var(--surface, color-mix(in srgb, var(--fg) 3%, var(--bg)));
    --_node-stroke:   var(--border, color-mix(in srgb, var(--fg) 20%, var(--bg)));
    --_group-fill:    var(--bg);
    --_group-hdr:     color-mix(in srgb, var(--fg) 5%, var(--bg));
    --_inner-stroke:  color-mix(in srgb, var(--fg) 12%, var(--bg));
    --_key-badge:     color-mix(in srgb, var(--fg) 10%, var(--bg));
  }
</style>
<defs>
  <marker id="arrowhead" markerWidth="8" markerHeight="4.8" refX="8" refY="2.4" orient="auto">
    <polygon points="0 0, 8 2.4, 0 4.8" fill="var(--_arrow)" />
  </marker>
  <marker id="arrowhead-start" markerWidth="8" markerHeight="4.8" refX="0" refY="2.4" orient="auto-start-reverse">
    <polygon points="8 0, 0 2.4, 8 4.8" fill="var(--_arrow)" />
  </marker>
</defs>
<rect x="236.34999999999997" y="182" width="818.3000000000001" height="207" rx="0" ry="0" fill="var(--_group-fill)" stroke="var(--_node-stroke)" stroke-width="1" />
<rect x="236.34999999999997" y="182" width="818.3000000000001" height="28" rx="0" ry="0" fill="var(--_group-hdr)" stroke="var(--_node-stroke)" stroke-width="1" />
<text x="248.34999999999997" y="196" dy="0.35em" font-size="12" font-weight="600" fill="var(--_text-sec)">&quot;MCP Host&lt;br/&gt;(Claude, ChatGPT, VS Code)&quot;</text>
<polyline points="136.35000000000002,302 256.35,302" fill="none" stroke="var(--_line)" stroke-width="0.75" marker-end="url(#arrowhead)" />
<polyline points="467.1,302 487.1,302 487.1,349 806.025,349" fill="none" stroke="var(--_line)" stroke-width="0.75" marker-end="url(#arrowhead)" marker-start="url(#arrowhead-start)" />
<polyline points="467.1,302 487.1,302 487.1,246.5 886.375,246.5 886.375,76" fill="none" stroke="var(--_line)" stroke-width="0.75" marker-end="url(#arrowhead)" />
<polyline points="467.1,302 487.1,302 487.1,283.5 886.375,283.5 886.375,136" fill="none" stroke="var(--_line)" stroke-width="0.75" marker-end="url(#arrowhead)" />
<polyline points="467.1,302 487.1,302 487.1,320.5 886.375,320.5 886.375,196" fill="none" stroke="var(--_line)" stroke-width="0.75" marker-end="url(#arrowhead)" />
<rect x="523.1" y="233" width="159" height="27" rx="4" ry="4" fill="var(--bg)" stroke="var(--_inner-stroke)" stroke-width="0.5" />
<text x="602.6" y="246.5" text-anchor="middle" dy="0.35em" font-size="11" font-weight="400" fill="var(--_text-muted)">&quot;stdio / Streamable HTTP&quot;</text>
<rect x="523.1" y="270" width="159" height="27" rx="4" ry="4" fill="var(--bg)" stroke="var(--_inner-stroke)" stroke-width="0.5" />
<text x="602.6" y="283.5" text-anchor="middle" dy="0.35em" font-size="11" font-weight="400" fill="var(--_text-muted)">&quot;stdio / Streamable HTTP&quot;</text>
<rect x="543.12" y="307" width="118.96000000000001" height="27" rx="4" ry="4" fill="var(--bg)" stroke="var(--_inner-stroke)" stroke-width="0.5" />
<text x="602.6" y="320.5" text-anchor="middle" dy="0.35em" font-size="11" font-weight="400" fill="var(--_text-muted)">&quot;OAuth 2.1 + OIDC&quot;</text>
<rect x="40.00000000000001" y="284" width="96.35000000000001" height="36" rx="0" ry="0" fill="#0369a1" stroke="#38bdf8" stroke-width="0.75" />
<rect x="738.1" y="40" width="296.55" height="36" rx="0" ry="0" fill="#1e293b" stroke="#1e3a5f" stroke-width="0.75" />
<rect x="752.4" y="100" width="267.95000000000005" height="36" rx="0" ry="0" fill="#1e293b" stroke="#1e3a5f" stroke-width="0.75" />
<rect x="752.4" y="160" width="267.95000000000005" height="36" rx="0" ry="0" fill="#1e293b" stroke="#1e3a5f" stroke-width="0.75" />
<rect x="256.35" y="284" width="210.75000000000003" height="36" rx="0" ry="0" fill="#1e3a5f" stroke="#38bdf8" stroke-width="0.75" />
<rect x="806.025" y="331" width="160.70000000000002" height="36" rx="0" ry="0" fill="#1e3a5f" stroke="#7dd3fc" stroke-width="0.75" />
<text x="88.17500000000001" y="302" text-anchor="middle" dy="0.35em" font-size="13" font-weight="500" fill="#e2e8f0">&quot;👤 User&quot;</text>
<text x="886.375" y="58" text-anchor="middle" dy="0.35em" font-size="13" font-weight="500" fill="#cbd5e1">&quot;🗄️ MCP Server A&lt;br/&gt;Database Tools&quot;</text>
<text x="886.375" y="118" text-anchor="middle" dy="0.35em" font-size="13" font-weight="500" fill="#cbd5e1">&quot;📁 MCP Server B&lt;br/&gt;File System&quot;</text>
<text x="886.375" y="178" text-anchor="middle" dy="0.35em" font-size="13" font-weight="500" fill="#cbd5e1">&quot;🌐 MCP Server C&lt;br/&gt;API Gateway&quot;</text>
<text x="361.725" y="302" text-anchor="middle" dy="0.35em" font-size="13" font-weight="500" fill="#e2e8f0">&quot;MCP Client&lt;br/&gt;JSON-RPC&quot;</text>
<text x="886.375" y="349" text-anchor="middle" dy="0.35em" font-size="13" font-weight="500" fill="#e2e8f0">&quot;LLM&lt;br/&gt;AI Model&quot;</text>
</svg>