<svg xmlns="http://www.w3.org/2000/svg" viewBox="0 0 535.63 365" width="535.63" height="365" style="--bg:#0f172a;--fg:#e2e8f0;--line:#38bdf8;--accent:#7dd3fc;--muted:#94a3b8;--surface:#1e293b;--border:#1e3a5f;background:var(--bg)">
<style>
  @import url('https://fonts.googleapis.com/css2?family=Inter:wght@400;500;600;700&amp;display=swap');
  text { font-family: 'Inter', system-ui, sans-serif; }
  svg {
    /* Derived from --bg and --fg (overridable via --line, --accent, etc.) */
    --_text:          var(--fg);
    --_text-sec:      var(--muted, color-mix(in srgb, var(--fg) 60%, var(--bg)));
    --_text-muted:    var(--muted, color-mix(in srgb, var(--fg) 40%, var(--bg)));
    --_text-faint:    color-mix(in srgb, var(--fg) 25%, var(--bg));
    --_line:          var(--line, color-mix(in srgb, var(--fg) 30%, var(--bg)));
    --_arrow:         var(--accent, color-mix(in srgb, var(--fg) 50%, var(--bg)));
    --_node-fill:     var(--surface, color-mix(in srgb, var(--fg) 3%, var(--bg)));
    --_node-stroke:   var(--border, color-mix(in srgb, var(--fg) 20%, var(--bg)));
    --_group-fill:    var(--bg);
    --_group-hdr:     color-mix(in srgb, var(--fg) 5%, var(--bg));
    --_inner-stroke:  color-mix(in srgb, var(--fg) 12%, var(--bg));
    --_key-badge:     color-mix(in srgb, var(--fg) 10%, var(--bg));
  }
</style>
<defs>
  <marker id="arrowhead" markerWidth="8" markerHeight="4.8" refX="8" refY="2.4" orient="auto">
    <polygon points="0 0, 8 2.4, 0 4.8" fill="var(--_arrow)" />
  </marker>
  <marker id="arrowhead-start" markerWidth="8" markerHeight="4.8" refX="0" refY="2.4" orient="auto-start-reverse">
    <polygon points="8 0, 0 2.4, 8 4.8" fill="var(--_arrow)" />
  </marker>
</defs>
<rect x="39.99999999999999" y="40" width="118.89999999999999" height="285" rx="0" ry="0" fill="var(--_group-fill)" stroke="var(--_node-stroke)" stroke-width="1" />
<rect x="39.99999999999999" y="40" width="118.89999999999999" height="28" rx="0" ry="0" fill="var(--_group-hdr)" stroke="var(--_node-stroke)" stroke-width="1" />
<text x="51.99999999999999" y="54" dy="0.35em" font-size="12" font-weight="600" fill="var(--_text-sec)">Gen 1: stdio</text>
<rect x="178.9" y="40" width="162.93" height="285" rx="0" ry="0" fill="var(--_group-fill)" stroke="var(--_node-stroke)" stroke-width="1" />
<rect x="178.9" y="40" width="162.93" height="28" rx="0" ry="0" fill="var(--_group-hdr)" stroke="var(--_node-stroke)" stroke-width="1" />
<text x="190.9" y="54" dy="0.35em" font-size="12" font-weight="600" fill="var(--_text-sec)">Gen 2: HTTP+SSE - DEPRECATED</text>
<rect x="361.83000000000004" y="40" width="133.79999999999995" height="285" rx="0" ry="0" fill="var(--_group-fill)" stroke="var(--_node-stroke)" stroke-width="1" />
<rect x="361.83000000000004" y="40" width="133.79999999999995" height="28" rx="0" ry="0" fill="var(--_group-hdr)" stroke="var(--_node-stroke)" stroke-width="1" />
<text x="373.83000000000004" y="54" dy="0.35em" font-size="12" font-weight="600" fill="var(--_text-sec)">Gen 3: Streamable HTTP - Current</text>
<polyline points="99.44999999999999,132 99.44999999999999,269" fill="none" stroke="var(--_line)" stroke-width="0.75" marker-end="url(#arrowhead)" marker-start="url(#arrowhead-start)" />
<polyline points="264.65500000000003,132 264.65500000000003,152 233.49500000000003,152 233.49500000000003,287 227.20500000000004,287" fill="none" stroke="var(--_line)" stroke-width="0.75" marker-end="url(#arrowhead)" />
<polyline points="264.65500000000003,269 264.65500000000003,249 295.81500000000005,249 295.81500000000005,114 302.105,114" fill="none" stroke="var(--_line)" stroke-width="0.75" marker-end="url(#arrowhead)" />
<polyline points="428.73,132 428.73,269" fill="none" stroke="var(--_line)" stroke-width="0.75" marker-end="url(#arrowhead)" marker-start="url(#arrowhead-start)" />
<rect x="57.12999999999999" y="187" width="84.64" height="27" rx="4" ry="4" fill="var(--bg)" stroke="var(--_inner-stroke)" stroke-width="0.5" />
<text x="99.44999999999999" y="200.5" text-anchor="middle" dy="0.35em" font-size="11" font-weight="400" fill="var(--_text-muted)">stdin/stdout</text>
<rect x="199.75500000000002" y="187" width="67.48" height="27" rx="4" ry="4" fill="var(--bg)" stroke="var(--_inner-stroke)" stroke-width="0.5" />
<text x="233.49500000000003" y="200.5" text-anchor="middle" dy="0.35em" font-size="11" font-weight="400" fill="var(--_text-muted)">HTTP POST</text>
<rect x="279.23500000000007" y="187" width="33.16" height="27" rx="4" ry="4" fill="var(--bg)" stroke="var(--_inner-stroke)" stroke-width="0.5" />
<text x="295.81500000000005" y="200.5" text-anchor="middle" dy="0.35em" font-size="11" font-weight="400" fill="var(--_text-muted)">SSE</text>
<rect x="377.83000000000004" y="187" width="101.8" height="27" rx="4" ry="4" fill="var(--bg)" stroke="var(--_inner-stroke)" stroke-width="0.5" />
<text x="428.73" y="200.5" text-anchor="middle" dy="0.35em" font-size="11" font-weight="400" fill="var(--_text-muted)">Single Endpoint</text>
<rect x="61.999999999999986" y="96" width="74.9" height="36" rx="0" ry="0" fill="#1e3a5f" stroke="#38bdf8" stroke-width="0.75" />
<rect x="61.999999999999986" y="269" width="74.9" height="36" rx="0" ry="0" fill="#1e3a5f" stroke="#38bdf8" stroke-width="0.75" />
<rect x="227.20500000000004" y="96" width="74.9" height="36" rx="0" ry="0" fill="#1e293b" stroke="#94a3b8" stroke-width="0.75" />
<rect x="227.20500000000004" y="269" width="74.9" height="36" rx="0" ry="0" fill="#1e293b" stroke="#94a3b8" stroke-width="0.75" />
<rect x="391.28000000000003" y="96" width="74.9" height="36" rx="0" ry="0" fill="#1e3a5f" stroke="#7dd3fc" stroke-width="0.75" />
<rect x="391.28000000000003" y="269" width="74.9" height="36" rx="0" ry="0" fill="#1e3a5f" stroke="#7dd3fc" stroke-width="0.75" />
<text x="99.44999999999999" y="114" text-anchor="middle" dy="0.35em" font-size="13" font-weight="500" fill="#e2e8f0">Client</text>
<text x="99.44999999999999" y="287" text-anchor="middle" dy="0.35em" font-size="13" font-weight="500" fill="#e2e8f0">Server</text>
<text x="264.65500000000003" y="114" text-anchor="middle" dy="0.35em" font-size="13" font-weight="500" fill="#94a3b8">Client</text>
<text x="264.65500000000003" y="287" text-anchor="middle" dy="0.35em" font-size="13" font-weight="500" fill="#94a3b8">Server</text>
<text x="428.73" y="114" text-anchor="middle" dy="0.35em" font-size="13" font-weight="500" fill="#e2e8f0">Client</text>
<text x="428.73" y="287" text-anchor="middle" dy="0.35em" font-size="13" font-weight="500" fill="#e2e8f0">Server</text>
</svg>